<svg width="256" height="256" xmlns="http://www.w3.org/2000/svg" fill="#000000">
 <g>
  <rect rx="44" stroke="null" id="svg_2" height="256" width="256" y="0" x="0" fill="#000000"/>
  <path stroke="null" fill="#f7f7f7" id="svg_1" d="m192,164.92307a19.6935,19.6935 0 0 1 -38.76142,4.92308l-59.70013,0a29.53846,29.53846 0 0 1 0,-59.07693l59.07693,0a14.76923,14.76923 0 0 0 0,-29.53846l-59.07693,0a4.92308,4.92308 0 0 1 0,-9.84615l59.07693,0a24.61539,24.61539 0 0 1 0,49.23077l-59.07693,0a19.69231,19.69231 0 0 0 0,39.38462l59.70013,0a19.6935,19.6935 0 0 1 38.76142,4.92308z"/>
 </g>
</svg>