<svg width="1468" height="920" xmlns="http://www.w3.org/2000/svg">
 <g>
  <g id="svg_24">
   <rect rx="3" id="svg_2" height="70" width="150" y="126.07129" x="1242.85706" stroke="#dddddd" fill="none" stroke-width="2"/>
   <rect rx="3" id="svg_3" height="70" width="150" y="126.07129" x="1242.85706" stroke="#dddddd" fill="none" stroke-width="2"/>
   <rect rx="3" id="svg_4" height="70" width="150" y="126.07129" x="1042.85707" stroke="#dddddd" fill="none" stroke-width="2"/>
   <rect rx="3" id="svg_6" height="70" width="150" y="126.07129" x="844.28566" stroke="#dddddd" fill="none" stroke-width="2"/>
   <rect rx="3" id="svg_8" height="70" width="150" y="126.07129" x="647.14282" stroke="#dddddd" fill="none" stroke-width="2"/>
   <rect rx="3" id="svg_9" height="70" width="150" y="243.21413" x="1242.85704" stroke="#dddddd" fill="none" stroke-width="2"/>
   <rect rx="3" id="svg_10" height="70" width="150" y="243.21413" x="1242.85704" stroke="#dddddd" fill="none" stroke-width="2"/>
   <rect rx="3" id="svg_11" height="70" width="150" y="243.21413" x="1042.85705" stroke="#dddddd" fill="none" stroke-width="2"/>
   <rect rx="3" id="svg_12" height="70" width="150" y="243.21414" x="844.28564" stroke="#dddddd" fill="none" stroke-width="2"/>
   <rect rx="3" id="svg_13" height="70" width="150" y="243.21413" x="647.1428" stroke="#dddddd" fill="none" stroke-width="2"/>
  </g>
  <g id="svg_25">
   <rect stroke-width="2" rx="3" id="svg_14" height="70" width="150" y="537.49981" x="1242.85703" stroke="#dddddd" fill="none"/>
   <rect stroke-width="2" rx="3" id="svg_15" height="70" width="150" y="537.49981" x="1242.85703" stroke="#dddddd" fill="none"/>
   <rect stroke-width="2" rx="3" id="svg_16" height="70" width="150" y="537.49982" x="1042.85705" stroke="#dddddd" fill="none"/>
   <rect stroke-width="2" rx="3" id="svg_17" height="70" width="150" y="537.49982" x="844.28564" stroke="#dddddd" fill="none"/>
   <rect stroke-width="2" rx="3" id="svg_18" height="70" width="150" y="537.49982" x="647.1428" stroke="#dddddd" fill="none"/>
   <rect stroke-width="2" rx="3" id="svg_19" height="70" width="150" y="654.64266" x="1242.85702" stroke="#dddddd" fill="none"/>
   <rect stroke-width="2" rx="3" id="svg_20" height="70" width="150" y="654.64266" x="1242.85702" stroke="#dddddd" fill="none"/>
   <rect stroke-width="2" rx="3" id="svg_21" height="70" width="150" y="654.64266" x="1042.85703" stroke="#dddddd" fill="none"/>
   <rect stroke-width="2" rx="3" id="svg_22" height="70" width="150" y="654.64266" x="844.28562" stroke="#dddddd" fill="none"/>
   <rect stroke-width="2" rx="3" id="svg_23" height="70" width="150" y="654.64266" x="647.14278" stroke="#dddddd" fill="none"/>
  </g>
  <rect rx="4" id="svg_26" height="732.85707" width="291.42854" y="190.71414" x="-2.3" fill="none" stroke-width="4" stroke="#ddd"/>

  <rect id="svg_28" height="58.57142" width="87.14285" y="650.71409" x="223.85705" stroke-width="0" stroke="#000" fill="#fafbfc"/>
 </g>
</svg>