<?xml version="1.0" encoding="UTF-8" standalone="no"?>
<svg
   width="37.821629"
   height="23.470789"
   viewBox="0 0 37.821629 23.470789"
   version="1.1"
   id="svg14"
   sodipodi:docname="person.svg"
   inkscape:version="1.2.1 (9c6d41e, 2022-07-14)"
   xmlns:inkscape="http://www.inkscape.org/namespaces/inkscape"
   xmlns:sodipodi="http://sodipodi.sourceforge.net/DTD/sodipodi-0.dtd"
   xmlns="http://www.w3.org/2000/svg"
   xmlns:svg="http://www.w3.org/2000/svg">
  <defs
     id="defs18" />
  <sodipodi:namedview
     id="namedview16"
     pagecolor="#ffffff"
     bordercolor="#000000"
     borderopacity="0.25"
     inkscape:showpageshadow="2"
     inkscape:pageopacity="0.0"
     inkscape:pagecheckerboard="0"
     inkscape:deskcolor="#d1d1d1"
     showgrid="false"
     inkscape:zoom="5.9"
     inkscape:cx="14.915254"
     inkscape:cy="20.169492"
     inkscape:window-width="1309"
     inkscape:window-height="404"
     inkscape:window-x="0"
     inkscape:window-y="385"
     inkscape:window-maximized="0"
     inkscape:current-layer="svg14" />
  <g
     fill="none"
     fill-rule="evenodd"
     id="g12"
     transform="translate(0.00114193,0.14678934)">
    <path
       d="M 28.553,4.912 C 29.375,-0.005 26.639,-2.483 24.037,3.539 M 9.267,4.912 c -0.822,-4.917 1.915,-7.395 4.516,-1.373"
       stroke="#1e1f21"
       stroke-width="0.3"
       fill="#ffffff"
       id="path2" />
    <path
       d="m 22.98,20.956 h 7.76 C 35.429,19.839 44.495,9.191 29.746,5.944 28.747,4.374 26.492,3.59 22.979,3.59 M 14.841,20.956 H 7.081 C 2.39,19.84 -6.676,9.191 8.074,5.944 9.072,4.374 11.328,3.59 14.84,3.59"
       fill="#32302c"
       id="path4" />
    <ellipse
       fill="#ffc498"
       cx="18.91"
       cy="12.273"
       rx="8.8000002"
       ry="10.4"
       id="ellipse6" />
    <path
       d="M 27.608,8.604 C 25.899,4.189 14.846,7.268 13.028,9.456 11.868,7.662 10.991,7.176 10.395,7.998 9.502,9.23 7.291,23.324 18.915,23.324 c 7.75,0 10.647,-4.907 8.693,-14.72 z"
       fill="#62351f"
       id="path8" />
    <path
       d="m 17.661,2.154 c 0.833,-1.515 1.666,-1.515 2.498,0"
       fill="#ffc498"
       id="path10" />
  </g>
</svg>
