<svg xmlns="http://www.w3.org/2000/svg" width="37.821629" height="23.470789" viewBox="0 0 37.8216 23.4708">
   <g fill="none" fill-rule="evenodd" transform="rotate(180 18.9102 11.662)">
      <path fill="#fff" stroke="#1e1f21" stroke-width=".3" d="M28.553 4.912c.822-4.917-1.914-7.395-4.516-1.373M9.267 4.912c-.822-4.917 1.915-7.395 4.516-1.373" style="&#10;    fill: #4a4a4a;&#10;"/>
      <path fill="#32302c" d="M22.98 20.956h7.76c4.689-1.117 13.755-11.765-.994-15.012-.999-1.57-3.254-2.354-6.767-2.354m-8.138 17.366h-7.76C2.39 19.84-6.676 9.191 8.074 5.944c.998-1.57 3.254-2.354 6.766-2.354" style="&#10;    fill: #b71baa;&#10;"/>
      <ellipse cx="18.91" cy="12.273" fill="#ffc498" rx="8.8" ry="10.4"/>
      <path fill="#62351f" d="M27.608 8.604c-1.709-4.415-12.762-1.336-14.58.852-1.16-1.794-2.037-2.28-2.633-1.458-.893 1.232-3.104 15.326 8.52 15.326 7.75 0 10.647-4.907 8.693-14.72z" style="&#10;    fill: #414141;&#10;"/>
      <path fill="#ffc498" d="M17.661 2.154c.833-1.515 1.666-1.515 2.498 0"/>
   </g>
</svg>